<svg id="Capa_1" enable-background="new 0 0 515.017 515.017" height="512" viewBox="0 0 515.017 515.017" width="512" xmlns="http://www.w3.org/2000/svg"><path d="m508.3 76.551-74.108 46.775-20.5-20.5-65.334 50.249-103.355 118.44 32.411 32.411 94.013-94.014c37.486 13.255 80.907 4.902 110.897-25.088 29.293-29.292 37.942-71.398 25.976-108.273z" fill="#676e74"/><path d="m393.192 82.327 46.767-74.1c-36.873-11.964-78.974-3.325-108.266 25.968-29.987 29.987-38.321 73.395-25.069 110.879l-94.032 94.032 32.411 32.411 168.689-168.69z" fill="#7c8388"/><path d="m75.042 509.809 46.775-74.108-20.5-20.5 50.249-65.334 118.44-103.355 32.411 32.411-94.014 94.013c13.255 37.486 4.902 80.907-25.088 110.897-29.291 29.293-71.398 37.942-108.273 25.976z" fill="#676e74"/><path d="m80.818 394.701-74.1 46.767c-11.964-36.873-3.325-78.974 25.968-108.267 29.987-29.987 73.396-38.321 110.879-25.069l94.032-94.032 32.411 32.411-168.689 168.69z" fill="#7c8388"/><path d="m181.058 97.624 8.5-25.499-126.219-72.125-30.729 30.729 88.956 104.04 226.414 211.329 40.777-40.776z" fill="#d8d8d8"/><path d="m1.881 61.458 72.126 126.219 25.498-8.5 207.698 207.698 40.777-40.777-315.37-315.369z" fill="#e7e7e7"/><path d="m307.523 209.003-48.319 48.319 80.334 110.504 125.279 95.11 48.319-48.32z" fill="#fdae02"/><path d="m303.684 238.898h68.334v290.781h-68.334z" fill="#fdcb02" transform="matrix(.707 -.707 .707 .707 -172.779 351.452)"/></svg>