<svg height="478pt" viewBox="0 -3 478.45704 478" width="478pt" xmlns="http://www.w3.org/2000/svg"><path d="m85.960938 408.230469 152 64 152-64v-168l-152 64-152-64zm0 0" fill="#ffaf1c"/><path d="m389.960938 408.230469v-168l-152 64v168zm0 0" fill="#e89b20"/><path d="m5.957031 304.230469 152 72 80-72-160-64zm0 0" fill="#31cccc"/><path d="m317.957031 376.230469 152-72-72-64-160 64zm0 0" fill="#31cccc"/><path d="m237.957031 184.230469-160 56 160 64 160-64zm0 0" fill="#d85b55"/><path d="m249.804688 246.59375-14.960938-5.671875c9.996094-26.386719 23.613281-51.234375 40.472656-73.859375 14.667969-19.679688 29.089844-33.183594 44.472656-41.484375 3.640626-6.886719 8.886719-12.339844 13.050782-16.25 20.445312-19.203125 47.042968-31.652344 74.894531-35.046875l1.9375 15.882812c-22.234375 2.710938-43.558594 11.976563-60.757813 26.296876 4.710938-.304688 9.15625.148437 13.273438 1.304687 10.875 3.058594 19.214844 11.472656 21.253906 21.4375 1.148438 5.625.378906 11.667969-2.234375 17.476563-6.976562 15.5-25.804687 23.859374-41.976562 18.609374-12.414063-4.015624-21.40625-15.445312-23.363281-28.070312-9.242188 7.140625-18.355469 16.835938-27.722657 29.40625-15.96875 21.429688-28.871093 44.96875-38.339843 69.96875zm82.371093-109.289062c-.148437.515624-.277343 1.027343-.382812 1.539062-1.769531 8.601562 4.011719 18.519531 12.367187 21.226562 8.351563 2.691407 18.851563-1.953124 22.457032-9.957031 1.207031-2.683593 1.613281-5.421875 1.148437-7.703125-.824219-4.035156-4.898437-7.832031-9.90625-9.238281-4.929687-1.394531-11.015625-.964844-18.078125 1.242187-2.5625.804688-5.097656 1.765626-7.605469 2.890626zm0 0" fill="#fcb138"/><path d="m181.164062 240.96875c-11.363281-23.785156-25.550781-42.863281-42.171874-56.714844-18.964844-15.800781-41.386719-24.722656-63.128907-25.125-19.617187-.414062-36.835937 6.867188-45.890625 19.355469-4.96875 6.84375-7.074218 16.519531-5.5 25.25 1.273438 7.054687 4.792969 12.816406 9.917969 16.21875l-8.851563 13.328125c-8.789062-5.835938-14.757812-15.320312-16.8125-26.707031-2.359374-13.066407.742188-27.082031 8.292969-37.488281 12.125-16.714844 34.257813-26.351563 59.140625-25.957032 25.371094.472656 51.320313 10.710938 73.074219 28.835938 18.402344 15.332031 34.003906 36.230468 46.367187 62.105468zm0 0" fill="#7ac174"/><path d="m197.878906 149.210938c-5.25-6.46875-5.871094-14.164063-6.417968-20.957032-.117188-1.453125-.230469-2.898437-.402344-4.3125-.601563-5.03125-3.046875-9.03125-4.75-9.113281-.914063-.191406-2.410156.503906-3.925782 1.035156-1.371093.480469-2.75.949219-4.144531 1.296875-7.042969 1.738282-15.714843-.441406-18.6875-8-1.609375-4.109375-.730469-7.941406-.203125-10.226562l6.160156-26.742188c-4.183593.25-8.175781 1.144532-12.347656 2.082032-5.351562 1.203124-10.882812 2.445312-16.824218 2.59375-5.292969.253906-9.296876-1.519532-11.835938-4.894532-3.175781-4.234375-2.363281-9.140625-2.097656-10.75.789062-4.707031 2.339844-9.011718 3.839844-13.171875 2.152343-5.980469 4.011718-11.144531 3.019531-15.6875.003906-.007812-.015625-.015625-.039063-.015625-.175781 0-.382812.003906-.621094.015625-10.15625.449219-19.925781 6.914063-24.308593 16.085938l-14.4375-6.898438c6.96875-14.578125 21.902343-24.457031 38.042969-25.171875 2.996093-.128906 7.492187.03125 11.363281 3.007813 2.832031 2.179687 4.726562 5.398437 5.632812 9.570312 1.972657 9.035157-.988281 17.257813-3.601562 24.515625-.890625 2.476563-1.75 4.859375-2.378907 7.152344 3.667969-.371094 7.128907-1.148438 10.738282-1.960938 6.066406-1.367187 12.28125-2.777343 19.144531-2.582031 8.011719.222657 11.246094 4.445313 12.457031 6.941407 1.902344 3.894531 1.015625 7.691406.59375 9.519531l-6.652344 28.863281c.640626-.195312 1.273438-.421875 1.90625-.644531 2.695313-.945313 6.066407-2.101563 10-1.914063 11.855469.582032 18.511719 12.070313 19.84375 23.191406.195313 1.621094.332032 3.273438.464844 4.929688.394532 4.90625.769532 9.542969 2.890625 12.15625zm0 0" fill="#7cd5ed"/><path d="m127.285156 130.617188c-10.324218-13.507813-24.050781-24.152344-39.699218-30.78125-15.457032-6.554688-31.078126-8.082032-43.984376-4.3125-14.289062 4.167968-25.488281 15.507812-27.875 28.222656l-15.726562-2.953125c3.527344-18.777344 18.882812-34.726563 39.121094-40.628907 16.453125-4.800781 35.875-3.039062 54.707031 4.9375 18.199219 7.710938 34.167969 20.09375 46.167969 35.804688zm0 0" fill="#d85b55"/><g fill="#3f4f4f"><path d="m213.992188 56.628906 14.671874-6.371094 19.316407 44.457032-14.671875 6.371094zm0 0"/><path d="m271.761719 110.980469-14.398438-6.976563c7.171875-14.804687 16.476563-28.425781 27.664063-40.472656l11.726562 10.882812c-10.105468 10.886719-18.511718 23.1875-24.992187 36.566407zm0 0"/><path d="m248.492188 59.773438c-.972657-16.351563 3.542968-32.832032 12.714843-46.410157l13.257813 8.953125c-7.210938 10.683594-10.765625 23.648438-10.003906 36.511719zm0 0"/><path d="m455.410156 169.832031-2.90625-15.734375c8.445313-1.558594 16.839844-2.605468 24.953125-3.113281l1 15.96875c-7.476562.46875-15.230469 1.4375-23.046875 2.878906zm0 0"/><path d="m309 254.34375-12.242188-10.304688c31.304688-37.175781 79.644532-68.375 129.304688-83.46875l4.648438 15.3125c-46.820313 14.226563-92.320313 43.558594-121.710938 78.460938zm0 0"/><path d="m197.960938.230469h16v16h-16zm0 0"/><path d="m341.957031 16.230469h16v16h-16zm0 0"/><path d="m445.957031 96.230469h16v16h-16zm0 0"/><path d="m21.960938 16.230469h16v16h-16zm0 0"/><path d="m157.960938 144.230469h16v16h-16zm0 0"/><path d="m69.960938 192.230469h16v16h-16zm0 0"/></g></svg>